<svg xmlns="http://www.w3.org/2000/svg" xmlns:xlink="http://www.w3.org/1999/xlink" xmlns:inkscape="http://www.inkscape.org/namespaces/inkscape" version="1.1" width="595.2756" height="841.8898" viewBox="0 0 595.2756 841.8898">
<g inkscape:groupmode="layer" inkscape:label="Layer 1">
<path transform="matrix(1,0,0,-1,0,841.8898)" d="M460.4502 357.2887C478.8422 375.5282 495.252 386.5139 508.7682 386.9118 444.7264 306.1791 385.2663 246.041 340.3664 251.3665 290.8967 257.6129 245.0302 249.5843 204.1957 221.6146 241.9033 344.6671 322.6141 349.1518 366.1965 368.64 362.0327 358.3891 343.6413 342.4473 299.5605 316.228 377.2307 304.7306 407.5911 298.446 460.4502 357.2887" fill="#d53503" fill-rule="evenodd"/>
<path transform="matrix(1,0,0,-1,0,841.8898)" d="M453.1343 382.03C463.5598 384.7989 470.1158 385.8608 476.0722 385.0909 435.9356 343.5231 411.3839 321.5157 405.3827 322.7913 411.2589 332.9473 429.2306 353.9174 453.1343 382.03" fill="#d53503" fill-rule="evenodd"/>
<path transform="matrix(1,0,0,-1,0,841.8898)" d="M117.2653 522.6049C121.5346 548.1533 121.0263 567.894 113.5463 579.1584 84.6196 480.2525 69.8615 396.9802 100.1378 363.3993 133.806 326.6198 153.7393 284.5383 154.4865 235.0494 233.17 336.8945 190.2214 405.377 180.9629 452.2116 174.9991 442.8924 172.605 418.6712 176.656 367.5427 122.4159 424.3124 99.7517 445.47 117.2653 522.6049" fill="#d53503" fill-rule="evenodd"/>
<path transform="matrix(1,0,0,-1,0,841.8898)" d="M141.6889 530.9201C137.9288 541.0304 135.0096 546.9959 130.9408 551.414 120.1839 494.6417 116.3957 461.8888 120.9027 457.7261 125.801 468.3881 132.5418 495.1701 141.6889 530.9201" fill="#d53503" fill-rule="evenodd"/>
<path transform="matrix(1,0,0,-1,0,841.8898)" d="M495.5828 645.8814C508.9116 622.7991 516.6193 597.9818 519.1469 572.9992 515.5019 591.12 508.9031 608.942 499.1726 625.7914 450.8016 709.5555 343.313 737.6941 259.1436 688.6239 174.9756 639.5573 145.9468 531.8325 194.3195 448.0662 208.3269 423.8135 227.2918 404.2327 249.2107 389.8315 219.7874 405.2863 194.2662 428.9326 176.4281 459.8206 125.7874 547.5138 156.1782 660.2922 244.2934 711.6619 332.4095 763.0305 444.9402 733.5746 495.5828 645.8814" fill="#192650" fill-rule="evenodd"/>
<path transform="matrix(1,0,0,-1,0,841.8898)" d="M495.2985 612.0663C535.4464 533.5739 507.1173 435.9906 429.5554 390.7726 349.4906 344.0985 247.2559 370.8595 201.2448 450.536 199.3603 453.7981 197.6119 457.1042 195.9718 460.4386 244.7671 387.6211 342.7322 364.6312 420.1345 409.7571 491.6078 451.4244 521.5972 537.2014 495.2985 612.0663" fill="#192650" fill-rule="evenodd"/>
<path transform="matrix(1,0,0,-1,0,841.8898)" d="M218.0477 667.7597C235.2969 685.0091 255.3375 697.7407 276.6946 705.9657 261.6131 698.4082 247.4589 688.3336 234.8694 675.7441 172.2739 613.148 171.8549 512.0399 233.9345 449.96 296.0138 387.881 397.1214 388.3003 459.7174 450.8957 477.841 469.0199 490.7441 490.3747 498.4325 513.074 491.514 483.5344 476.5249 455.4476 453.4424 432.3654 387.9113 366.834 282.0603 366.3952 217.0689 431.3863 152.0787 496.3768 152.5167 602.2287 218.0477 667.7597" fill="#d53503" fill-rule="evenodd"/>
<path transform="matrix(1,0,0,-1,0,841.8898)" d="M247.7897 675.6412C307.6183 729.7534 399.6652 728.3458 456.8732 671.1378 515.9251 612.0859 515.5268 515.9194 455.9879 456.3802 453.5487 453.9413 451.0426 451.6135 448.4869 449.371 501.3748 509.705 499.4294 601.2173 442.3394 658.3071 389.624 711.023 307.5608 716.722 247.7897 675.6412" fill="#d53503" fill-rule="evenodd"/>
<path transform="matrix(1,0,0,-1,0,841.8898)" d="M329.9641 625.4972C333.6273 615.1124 343.7631 609.2218 352.5987 612.3396 361.436 615.4569 365.6282 626.4026 361.9661 636.7881 358.3026 647.1714 348.1696 653.0641 339.3312 649.9468 330.4959 646.8287 326.3006 635.8813 329.9641 625.4972" fill="#192650"/>
<path transform="matrix(1,0,0,-1,0,841.8898)" d="M385.1963 612.2364C385.1963 612.2364 345.1022 569.0174 278.7897 657.5644 278.7897 657.5644 278.2542 619.1994 326.3244 578.5064 374.3918 537.8139 376.0784 498.1799 342.3478 460.2305 342.3478 460.2305 378.6092 482.1548 378.6092 518.4176 378.6092 554.6812 361.7997 563.9587 360.5057 579.1374 359.2117 594.3172 383.3515 582.9318 385.1963 612.2364" fill="#192650"/>
<path transform="matrix(1,0,0,-1,0,841.8898)" d="M312.6195 550.8575C310.5184 554.9834 309.3712 559.6761 309.3712 564.387 309.3712 578.0188 318.9813 591.5072 333.5219 591.5072 348.0622 591.5072 357.6716 578.0183 357.6716 564.387 357.6716 560.0398 356.6945 555.7068 354.892 551.8208 358.403 554.1231 361.6546 556.7661 364.5315 559.4494 373.0371 567.383 383.0729 580.576 386.1332 591.9823 387.0235 595.302 390.0416 597.4852 393.4735 597.2919 396.9057 597.0986 399.6595 594.5907 400.1717 591.1917 401.4283 582.8573 400.3132 571.93 398.4809 563.8374 393.8193 543.2522 382.3075 525.9932 365.6863 513.0445 357.4295 506.6127 347.8606 498.4092 342.1253 489.5427 338.8643 484.5016 336.8965 479.3247 337.1998 473.2594 337.5196 466.8642 340.2876 460.122 342.7685 454.2885 344.0548 451.2643 343.188 447.8737 340.6076 445.8385 338.0272 443.8029 334.5284 443.7488 331.8866 445.7044 327.236 449.1459 322.471 453.8163 318.6638 458.121 310.7925 467.0203 304.1572 477.8376 302.1792 489.7074 301.0518 496.4751 300.0971 503.4285 298.5446 510.1064 297.4938 514.6277 296.0654 519.3266 293.485 523.2325 291.5597 526.1477 289.1259 528.4097 286.2057 530.3115 271.3292 539.9963 263.1302 557.7905 263.1302 575.2806 263.1302 578.2949 264.8835 580.8662 267.6903 581.9672 270.4966 583.0676 273.5306 582.3743 275.58 580.1635 283.6619 571.445 298.2385 558.5355 312.6195 550.8575" fill="#ffffff" fill-rule="evenodd"/>
<path transform="matrix(1,0,0,-1,0,841.8898)" d="M270.3127 575.2809C270.3127 575.2809 305.5558 537.2586 333.3787 537.2586 361.2002 537.2586 387.845 570.6451 393.0701 590.1208 393.0701 590.1208 399.3695 548.3889 361.2722 518.7107 323.1765 489.0334 326.8871 473.2781 336.1592 451.4777 336.1592 451.4777 312.9735 468.6301 309.2641 490.8878 305.5558 513.1454 304.3687 527.0567 290.1243 536.33 275.8779 545.6055 270.3127 562.2982 270.3127 575.2809" fill="#d53503"/>
<path transform="matrix(1,0,0,-1,0,841.8898)" d="M316.5534 564.387C316.5534 553.3747 324.1494 544.447 333.5219 544.447 342.8932 544.447 350.4892 553.3747 350.4892 564.387 350.4892 575.3974 342.8932 584.3248 333.5219 584.3248 324.1494 584.3248 316.5534 575.3974 316.5534 564.387" fill="#d53503"/>
<path transform="matrix(1,0,0,-1,0,841.8898)" d="M331.7298 527.9706C333.2914 527.9706 334.5576 526.7047 334.5576 525.1428 334.5576 523.5812 333.2914 522.3149 331.7298 522.3149 330.1679 522.3149 328.902 523.5812 328.902 525.1428 328.902 526.7047 330.1679 527.9706 331.7298 527.9706Z" fill="#192650" fill-rule="evenodd"/>
<path transform="matrix(1,0,0,-1,0,841.8898)" stroke-width=".216" stroke-linecap="butt" stroke-miterlimit="22.925585" stroke-linejoin="miter" fill="none" stroke="#2f2483" d="M331.7298 527.9706C333.2914 527.9706 334.5576 526.7047 334.5576 525.1428 334.5576 523.5812 333.2914 522.3149 331.7298 522.3149 330.1679 522.3149 328.902 523.5812 328.902 525.1428 328.902 526.7047 330.1679 527.9706 331.7298 527.9706Z"/>
<path transform="matrix(1,0,0,-1,0,841.8898)" d="M323.8231 510.7649C326.1654 510.7649 328.0646 508.8654 328.0646 506.5228 328.0646 504.1806 326.1654 502.2814 323.8231 502.2814 321.4806 502.2814 319.5816 504.1806 319.5816 506.5228 319.5816 508.8654 321.4806 510.7649 323.8231 510.7649" fill="#192650" fill-rule="evenodd"/>
<path transform="matrix(1,0,0,-1,0,841.8898)" d="M322.484 485.7588C324.0459 485.7588 325.3119 484.4928 325.3119 482.9309 325.3119 481.3693 324.0459 480.1034 322.484 480.1034 320.9227 480.1034 319.6568 481.3693 319.6568 482.9309 319.6568 484.4928 320.9227 485.7588 322.484 485.7588" fill="#192650" fill-rule="evenodd"/>
<text fill="#d53503" xml:space="preserve" transform="matrix(1 0 -0 1 0 841.8898)" font-size="124.177" font-family="Bahnschrift" font-weight="bold"><tspan y="-123.3782" x="48.7182">F</tspan></text>
<text fill="#d53503" xml:space="preserve" transform="matrix(1 0 -0 1 0 841.8898)" font-size="124.177" font-family="Bahnschrift" font-weight="bold"><tspan y="-123.3782" x="119.9517">i</tspan></text>
<text fill="#d53503" xml:space="preserve" transform="matrix(1 0 -0 1 0 841.8898)" font-size="124.177" font-family="Bahnschrift" font-weight="bold"><tspan y="-123.3782" x="151.1189">z</tspan></text>
<text fill="#d53503" xml:space="preserve" transform="matrix(1 0 -0 1 0 841.8898)" font-size="124.177" font-family="Bahnschrift" font-weight="bold"><tspan y="-123.3782" x="212.5426">i</tspan></text>
<text fill="#d53503" xml:space="preserve" transform="matrix(1 0 -0 1 0 841.8898)" font-size="124.177" font-family="Bahnschrift" font-weight="bold"><tspan y="-123.3782" x="243.7098">k</tspan></text>
<text fill="#192650" xml:space="preserve" transform="matrix(1 0 -0 1 0 841.8898)" font-size="124.177" font-family="Bahnschrift" font-weight="bold"><tspan y="-123.3782" x="309.3761">E</tspan></text>
<text fill="#192650" xml:space="preserve" transform="matrix(1 0 -0 1 0 841.8898)" font-size="124.177" font-family="Bahnschrift" font-weight="bold"><tspan y="-123.3782" x="383.5894 470.5133">ND</tspan></text>
<path transform="matrix(1,0,0,-1,0,841.8898)" stroke-width=".5669" stroke-linecap="butt" stroke-miterlimit="22.925585" stroke-linejoin="miter" fill="none" stroke="#c5c6c6" d="M19.2869 797.3521H583.2873V62.9518H19.2869Z"/>
</g>
</svg>
