<svg xmlns="http://www.w3.org/2000/svg" xmlns:xlink="http://www.w3.org/1999/xlink" xmlns:inkscape="http://www.inkscape.org/namespaces/inkscape" version="1.1" width="600" height="680" viewBox="55 85 600 680">
<g inkscape:groupmode="layer" inkscape:label="Layer 1">
<path transform="matrix(1,0,0,-1,0,841.8898)" d="M541.9565 266.0451C564.8613 288.7597 585.2971 302.4405 602.1292 302.9363 522.375 202.3957 448.3264 127.5029 392.4102 134.1349 330.8034 141.914 273.6833 131.9156 222.8304 97.0838 269.7894 250.3267 370.3028 255.9118 424.5778 280.1815 419.3923 267.4157 396.4884 247.5624 341.5927 214.9104 438.3193 200.592 476.1286 192.7653 541.9565 266.0451" fill="#d53503" fill-rule="evenodd"/>
<path transform="matrix(1,0,0,-1,0,841.8898)" d="M532.8456 296.8566C545.8292 300.3049 553.9935 301.6273 561.4112 300.6686 511.4271 248.902 480.852 221.4952 473.3782 223.0838 480.6961 235.7314 503.077 261.8467 532.8456 296.8566" fill="#d53503" fill-rule="evenodd"/>
<path transform="matrix(1,0,0,-1,0,841.8898)" d="M114.5716 471.9214C119.8885 503.7381 119.2555 528.3221 109.94 542.3502 73.9165 419.1778 55.5375 315.4751 93.242 273.655 135.1706 227.8514 159.9945 175.4456 160.9251 113.8144 258.9137 240.6475 205.4276 325.9318 193.8974 384.2575 186.4706 372.6516 183.4889 342.4878 188.5337 278.8149 120.9858 349.5132 92.7615 375.8613 114.5716 471.9214" fill="#d53503" fill-rule="evenodd"/>
<path transform="matrix(1,0,0,-1,0,841.8898)" d="M144.9876 482.2767C140.3048 494.8673 136.6696 502.2967 131.6027 507.799 118.2064 437.0973 113.4887 396.3087 119.1016 391.1247 125.2015 404.4027 133.5963 437.7555 144.9876 482.2767" fill="#d53503" fill-rule="evenodd"/>
<path transform="matrix(1,0,0,-1,0,841.8898)" d="M585.7089 625.4436C602.3078 596.698 611.9067 565.7919 615.0543 534.6799 610.5149 557.2466 602.2973 579.441 590.1795 600.4247 529.9407 704.74 396.0799 739.7827 291.2598 678.6729 186.4412 617.5678 150.2901 483.4131 210.5311 379.0947 227.975 348.8919 251.5929 324.5068 278.8894 306.5723 242.2474 325.819 210.4648 355.2667 188.25 393.7331 125.1848 502.9415 163.0318 643.39 272.766 707.3631 382.5014 771.3351 522.6412 734.652 585.7089 625.4436" fill="#192650" fill-rule="evenodd"/>
<path transform="matrix(1,0,0,-1,0,841.8898)" d="M585.3549 583.3318C635.3529 485.5813 600.0732 364.0564 503.4815 307.7444 403.7732 249.6189 276.4553 282.9455 219.1555 382.1706 216.8087 386.2329 214.6314 390.3503 212.5888 394.5027 273.3559 303.8196 395.3568 275.1891 491.7495 331.3865 580.7588 383.277 618.1058 490.0989 585.3549 583.3318" fill="#192650" fill-rule="evenodd"/>
<path transform="matrix(1,0,0,-1,0,841.8898)" d="M240.0809 652.6896C261.5624 674.1714 286.5197 690.0265 313.1167 700.2694 294.3351 690.8579 276.7082 678.3114 261.0298 662.633 183.0764 584.6794 182.5546 458.7642 259.8656 381.4532 337.1757 304.143 463.0901 304.6652 541.044 382.6185 563.6143 405.1894 579.6831 431.7837 589.2576 460.0522 580.6417 423.265 561.975 388.2872 533.2294 359.5416 451.6203 277.9325 319.7988 277.386 238.862 358.3225 157.9263 439.2584 158.472 571.0808 240.0809 652.6896" fill="#d53503" fill-rule="evenodd"/>
<path transform="matrix(1,0,0,-1,0,841.8898)" d="M277.1201 662.5049C351.6276 729.8935 466.2581 728.1403 537.5018 656.8965 611.0422 583.3562 610.5461 463.5955 536.3991 389.4486 533.3615 386.4115 530.2406 383.5123 527.0579 380.7198 592.922 455.8567 590.4992 569.821 519.4023 640.9176 453.7531 706.5675 351.5559 713.6649 277.1201 662.5049" fill="#d53503" fill-rule="evenodd"/>
<path transform="matrix(1,0,0,-1,0,841.8898)" d="M379.4559 600.0582C384.018 587.1254 396.6403 579.7896 407.6439 583.6723 418.6491 587.5543 423.87 601.1858 419.3096 614.1195 414.7472 627.05 402.1282 634.3883 391.121 630.5063 380.118 626.6231 374.8935 612.9901 379.4559 600.0582" fill="#192650"/>
<path transform="matrix(1,0,0,-1,0,841.8898)" d="M448.2394 583.5438C448.2394 583.5438 398.308 529.7213 315.7257 639.993 315.7257 639.993 315.059 592.215 374.923 541.5384 434.7839 490.862 436.8841 441.5037 394.8778 394.2437 394.8778 394.2437 440.0359 421.547 440.0359 466.7066 440.0359 511.8678 419.1024 523.4216 417.4909 542.3241 415.8794 561.2284 445.9416 547.0492 448.2394 583.5438" fill="#192650"/>
<path transform="matrix(1,0,0,-1,0,841.8898)" d="M357.8556 507.1059C355.2392 512.244 353.8106 518.0882 353.8106 523.9545 353.8106 540.9312 365.7781 557.7287 383.8864 557.7287 401.9941 557.7287 413.9612 540.9306 413.9612 523.9545 413.9612 518.5409 412.7445 513.1449 410.4998 508.3053 414.8719 511.1725 418.9215 514.4638 422.5042 517.8056 433.0967 527.6854 445.5947 544.1156 449.4059 558.3206 450.5148 562.4546 454.2732 565.1734 458.5473 564.9327 462.8214 564.692 466.251 561.5688 466.8888 557.3358 468.4538 546.9565 467.0649 533.3485 464.783 523.2702 458.9776 497.6345 444.6417 476.1408 423.9425 460.0154 413.6601 452.0055 401.7433 441.7892 394.6008 430.7477 390.5399 424.4695 388.0891 418.0226 388.4669 410.4689 388.8649 402.5049 392.3121 394.1084 395.4019 386.8435 397.0037 383.0774 395.924 378.8552 392.7107 376.3205 389.4973 373.7854 385.1399 373.7183 381.85 376.1532 376.0586 380.4392 370.1242 386.2556 365.3833 391.6165 355.5808 402.6994 347.3172 416.1705 344.8539 430.9526 343.4502 439.3806 342.2611 448.0404 340.3278 456.3564 339.0188 461.9869 337.2403 467.839 334.0267 472.7032 331.6292 476.3333 328.5981 479.1504 324.9615 481.5187 306.4348 493.5796 296.2242 515.7397 296.2242 537.5211 296.2242 541.275 298.4077 544.477 301.9031 545.8482 305.3982 547.2187 309.1765 546.3553 311.7285 543.602 321.7935 532.7442 339.9463 516.6675 357.8556 507.1059" fill="#ffffff" fill-rule="evenodd"/>
<path transform="matrix(1,0,0,-1,0,841.8898)" d="M305.1692 537.5214C305.1692 537.5214 349.0591 490.1703 383.7084 490.1703 418.3557 490.1703 451.5375 531.7483 458.0447 556.0021 458.0447 556.0021 465.8896 504.0315 418.4453 467.0717 371.003 430.1133 375.624 410.4924 387.1709 383.3433 387.1709 383.3433 358.2967 404.7041 353.6773 432.4224 349.0591 460.1409 347.5806 477.4654 329.8414 489.0141 312.0996 500.5653 305.1692 521.3534 305.1692 537.5214" fill="#d53503"/>
<path transform="matrix(1,0,0,-1,0,841.8898)" d="M362.755 523.9545C362.755 510.2405 372.2148 499.1224 383.8864 499.1224 395.5569 499.1224 405.0167 510.2405 405.0167 523.9545 405.0167 537.6665 395.5569 548.7843 383.8864 548.7843 372.2148 548.7843 362.755 537.6665 362.755 523.9545" fill="#d53503"/>
<path transform="matrix(1,0,0,-1,0,841.8898)" d="M381.6547 478.6036C383.5996 478.6036 385.1762 477.0269 385.1762 475.0818 385.1762 473.1372 383.5996 471.5603 381.6547 471.5603 379.7096 471.5603 378.1332 473.1372 378.1332 475.0818 378.1332 477.0269 379.7096 478.6036 381.6547 478.6036Z" fill="#192650" fill-rule="evenodd"/>
<path transform="matrix(1,0,0,-1,0,841.8898)" stroke-width=".216" stroke-linecap="butt" stroke-miterlimit="22.925585" stroke-linejoin="miter" fill="none" stroke="#2f2483" d="M381.6547 478.6036C383.5996 478.6036 385.1762 477.0269 385.1762 475.0818 385.1762 473.1372 383.5996 471.5603 381.6547 471.5603 379.7096 471.5603 378.1332 473.1372 378.1332 475.0818 378.1332 477.0269 379.7096 478.6036 381.6547 478.6036Z"/>
<path transform="matrix(1,0,0,-1,0,841.8898)" d="M371.8083 457.1762C374.7251 457.1762 377.0901 454.811 377.0901 451.8935 377.0901 448.9767 374.7251 446.6117 371.8083 446.6117 368.8909 446.6117 366.5259 448.9767 366.5259 451.8935 366.5259 454.811 368.8909 457.1762 371.8083 457.1762" fill="#192650" fill-rule="evenodd"/>
<path transform="matrix(1,0,0,-1,0,841.8898)" d="M370.1407 426.0351C372.0858 426.0351 373.6621 424.4587 373.6621 422.5136 373.6621 420.5684 372.0858 418.9921 370.1407 418.9921 368.1961 418.9921 366.6195 420.5684 366.6195 422.5136 366.6195 424.4587 368.1961 426.0351 370.1407 426.0351" fill="#192650" fill-rule="evenodd"/>
</g>
</svg>
