<?xml version="1.0" standalone="no"?>
<!DOCTYPE svg PUBLIC "-//W3C//DTD SVG 20010904//EN"
 "http://www.w3.org/TR/2001/REC-SVG-20010904/DTD/svg10.dtd">
<svg version="1.0" xmlns="http://www.w3.org/2000/svg"
 width="1544.000000pt" height="641.000000pt" viewBox="0 0 1544.000000 641.000000"
 preserveAspectRatio="xMidYMid meet">

<g transform="translate(0.000000,641.000000) scale(0.100000,-0.100000)"
fill="#000000" stroke="none">
<path d="M3407 5902 c-10 -4 -39 -38 -65 -74 -26 -37 -99 -135 -163 -220 -150
-197 -190 -261 -197 -312 -6 -52 -19 -77 -162 -321 -217 -369 -473 -836 -659
-1202 -34 -66 -71 -133 -82 -147 -16 -20 -83 -46 -367 -140 -191 -63 -510
-165 -709 -225 -453 -139 -469 -145 -488 -181 -21 -41 -19 -58 13 -89 38 -39
88 -46 542 -76 427 -28 609 -44 626 -53 7 -5 -17 -72 -73 -197 -176 -397 -291
-712 -353 -966 -24 -100 -30 -145 -30 -234 0 -103 2 -113 29 -160 38 -67 66
-82 114 -61 45 18 65 55 51 94 -5 15 -19 31 -31 37 -43 19 -39 96 17 315 64
252 267 775 416 1073 38 74 48 87 69 87 38 0 361 -37 525 -61 666 -94 1286
-296 1571 -511 113 -85 148 -132 159 -210 11 -73 28 -92 79 -84 47 7 66 29 65
75 -3 100 -130 251 -311 371 -322 213 -777 363 -1418 469 -99 17 -591 81 -617
81 -5 0 -8 7 -8 16 0 19 223 459 249 491 9 13 119 62 271 123 875 352 1532
720 2230 1246 205 154 480 386 563 473 49 51 56 63 47 80 -13 26 -42 34 -89
26 -70 -12 -98 -32 -425 -309 -334 -282 -899 -655 -1418 -936 -378 -204 -1058
-505 -1058 -468 0 30 417 804 618 1148 136 232 243 397 299 459 61 68 201 279
244 368 39 82 48 150 23 181 -21 24 -68 36 -97 24z m-1478 -2579 c-22 -49 -66
-140 -97 -203 l-57 -115 -95 2 c-178 4 -795 45 -804 53 -5 5 11 14 35 20 137
35 433 128 709 221 173 58 323 107 332 108 14 1 10 -15 -23 -86z"/>
<path d="M11205 5663 c-293 -10 -950 -67 -1255 -108 -460 -64 -1041 -171
-1364 -252 -238 -59 -585 -174 -699 -232 -102 -51 -137 -91 -123 -144 13 -54
33 -57 446 -68 492 -12 593 -27 775 -113 157 -75 272 -181 353 -326 40 -72 97
-245 112 -340 l12 -75 -167 -360 c-189 -408 -371 -822 -468 -1065 -103 -259
-196 -576 -197 -673 0 -74 76 -110 149 -72 89 46 303 349 439 622 194 389 318
819 353 1230 l12 138 80 160 c177 356 419 791 570 1025 112 173 129 208 121
245 -14 66 -83 101 -142 71 -63 -33 -120 -125 -407 -661 -108 -203 -209 -389
-223 -413 l-25 -43 -19 57 c-34 100 -105 241 -153 304 -112 145 -301 260 -530
320 -142 37 -255 50 -520 61 -143 6 -269 14 -280 19 -18 7 -16 10 17 24 119
51 643 192 983 265 684 145 1186 214 1925 262 241 15 915 6 1027 -14 155 -29
194 -44 244 -98 54 -59 94 -66 128 -23 43 55 18 126 -59 168 -153 83 -597 127
-1115 109z m-1779 -2240 c-10 -86 -69 -312 -117 -448 -50 -143 -151 -374 -221
-505 -56 -105 -177 -294 -185 -287 -12 13 71 266 166 504 114 286 344 793 359
793 3 0 2 -26 -2 -57z"/>
<path d="M14770 5298 c-156 -78 -363 -348 -649 -848 -207 -362 -379 -719 -523
-1085 -39 -99 -80 -190 -92 -203 -48 -54 -325 -222 -459 -279 -278 -118 -441
-88 -425 76 9 88 21 101 140 141 237 81 400 244 367 365 -14 49 -50 65 -144
65 -63 0 -85 -5 -133 -29 -123 -62 -217 -153 -319 -308 -77 -117 -213 -233
-290 -249 -48 -9 -72 24 -112 152 -40 133 -61 169 -106 184 -65 21 -152 -16
-322 -141 -53 -38 -100 -69 -104 -69 -5 0 -7 10 -5 23 46 212 38 349 -19 371
-78 30 -170 -46 -419 -347 -81 -98 -150 -176 -152 -174 -3 3 27 75 65 161 39
86 71 166 71 179 0 49 -72 81 -115 53 -13 -9 -49 -58 -79 -109 -62 -106 -66
-110 -161 -167 -183 -112 -425 -212 -546 -226 -111 -13 -169 29 -169 121 0 69
17 87 105 115 172 56 322 157 369 251 47 96 26 155 -64 179 -110 30 -265 -43
-406 -193 -86 -89 -138 -189 -155 -292 -14 -85 -3 -135 44 -196 51 -67 94 -84
207 -83 52 1 123 8 157 17 82 22 277 111 398 182 53 31 99 54 102 51 4 -3 -4
-41 -17 -83 -27 -95 -37 -192 -21 -221 13 -24 63 -41 101 -34 37 8 128 105
302 323 161 202 263 319 279 319 15 0 10 -44 -21 -192 -38 -179 -38 -210 -4
-237 30 -24 68 -26 102 -7 13 7 71 55 129 107 175 156 240 200 277 186 8 -3
26 -43 41 -89 36 -108 70 -174 98 -193 68 -44 183 -24 299 54 l72 49 16 -62
c19 -77 48 -118 108 -153 44 -26 54 -28 152 -27 172 3 348 67 601 220 61 36
112 64 114 62 2 -2 -12 -65 -30 -139 -19 -75 -41 -182 -50 -238 -18 -122 -20
-308 -3 -365 30 -97 144 -158 255 -136 126 25 288 119 483 279 169 138 647
616 706 706 19 29 8 55 -24 55 -19 0 -87 -61 -311 -283 -367 -363 -548 -514
-725 -604 -84 -42 -171 -55 -210 -30 -102 67 -62 353 119 852 79 219 101 260
209 378 433 477 945 1233 1052 1557 12 37 18 86 19 149 l0 95 -34 23 c-45 30
-66 29 -141 -9z m67 -175 c-7 -62 -62 -191 -138 -329 -140 -252 -568 -864
-754 -1079 -25 -29 -26 -29 -19 -5 10 37 240 494 339 675 107 194 249 432 328
550 73 107 197 235 228 235 20 0 21 -4 16 -47z m-1832 -1723 c23 -38 -149
-184 -264 -225 -40 -14 -41 -14 -31 5 34 63 191 203 248 220 37 11 40 11 47 0z
m-2555 -36 c0 -29 -105 -119 -189 -163 -107 -56 -125 -52 -69 15 24 28 62 66
85 85 85 68 173 101 173 63z"/>
<path d="M6030 4474 c-100 -46 -269 -242 -432 -499 -38 -60 -125 -222 -194
-360 -69 -137 -129 -254 -133 -258 -5 -5 -22 9 -40 31 -17 22 -46 47 -65 56
-107 51 -282 -26 -435 -190 -35 -38 -81 -87 -101 -109 -67 -71 -229 -154 -303
-155 -77 0 -75 76 7 258 64 143 62 172 -17 172 -18 0 -50 11 -72 25 -34 21
-52 24 -126 25 -76 0 -93 -4 -145 -30 -118 -59 -262 -202 -317 -314 -104 -211
-12 -338 180 -251 68 31 128 72 231 157 l82 69 0 -34 c0 -91 30 -138 100 -157
53 -14 117 -2 218 42 40 17 74 29 77 27 2 -3 -1 -25 -6 -49 -6 -25 -9 -73 -7
-108 3 -52 9 -67 31 -90 23 -22 36 -27 75 -26 91 1 202 77 409 276 75 72 138
127 140 122 2 -6 -19 -85 -47 -177 -84 -277 -101 -359 -107 -497 -5 -113 -3
-130 15 -165 26 -53 52 -75 94 -81 25 -4 39 -1 51 11 25 24 21 40 -18 84 -29
32 -35 46 -35 82 0 156 101 506 248 859 l56 135 193 202 c190 200 286 318 376
463 89 145 157 314 157 393 0 30 -47 87 -72 87 -7 0 -38 -12 -68 -26z m40
-146 c0 -67 -152 -336 -281 -498 -54 -69 -219 -240 -231 -240 -11 0 81 182
155 305 132 219 315 465 348 465 5 0 9 -15 9 -32z m-1883 -1002 l27 -24 -38
-46 c-49 -61 -232 -212 -304 -253 -57 -33 -105 -42 -117 -22 -24 37 203 292
304 342 67 33 92 34 128 3z m950 -40 l28 -25 -20 -38 c-30 -57 -249 -272 -338
-331 -125 -83 -155 -67 -98 53 75 157 288 363 378 365 12 0 35 -11 50 -24z"/>
<path d="M6225 3756 c-17 -7 -35 -19 -41 -27 -34 -43 -23 -107 23 -128 22 -10
33 -8 72 11 35 18 49 32 60 62 15 38 14 39 -17 67 -36 32 -52 35 -97 15z"/>
<path d="M6908 3596 c-93 -33 -191 -114 -231 -190 -31 -59 -30 -157 1 -210 22
-37 22 -39 5 -59 -32 -35 -285 -197 -378 -242 -126 -61 -180 -77 -257 -79 -61
-1 -70 2 -95 27 -24 24 -28 35 -27 80 2 67 37 145 142 311 51 81 82 140 82
157 0 54 -59 83 -115 56 -38 -18 -144 -170 -194 -277 -56 -120 -77 -257 -50
-327 24 -64 110 -123 179 -122 64 0 184 26 267 58 102 40 256 132 415 249
l123 90 70 -14 c39 -7 87 -13 107 -14 45 0 68 -8 68 -25 0 -6 -38 -76 -85
-155 -165 -275 -217 -400 -196 -472 16 -53 58 -78 133 -78 118 0 248 71 466
255 102 86 492 477 492 493 0 6 -9 16 -21 22 -27 15 -45 1 -251 -197 -369
-356 -537 -483 -638 -483 -103 0 -80 75 118 378 62 94 122 192 133 218 24 53
21 104 -7 135 -20 22 -94 45 -176 55 -32 3 -58 11 -58 16 0 5 20 32 44 60 58
66 95 135 102 191 6 42 4 49 -24 76 -34 35 -79 40 -144 17z m64 -121 c-9 -50
-113 -185 -143 -185 -16 0 -19 7 -19 43 0 53 26 97 82 137 47 35 85 37 80 5z"/>
<path d="M5150 1363 c-8 -3 -18 -11 -22 -17 -9 -14 -10 -475 -2 -579 7 -76 7
-77 34 -77 35 0 40 22 40 176 l0 114 108 0 c131 0 152 5 152 35 0 30 -21 35
-153 35 l-108 0 3 123 3 122 148 5 c117 4 150 8 157 20 14 22 12 28 -9 40 -20
10 -324 13 -351 3z"/>
<path d="M5624 1329 c-14 -16 -15 -23 -6 -45 10 -21 18 -25 45 -22 29 3 32 6
32 37 0 29 -4 36 -27 42 -20 5 -31 2 -44 -12z"/>
<path d="M9723 1340 c-28 -11 -32 -64 -7 -74 51 -20 88 17 59 60 -17 26 -19
27 -52 14z"/>
<path d="M7392 1298 c-6 -8 -12 -41 -14 -73 -3 -59 -3 -60 -35 -63 -17 -2 -37
-10 -43 -18 -18 -20 3 -42 43 -46 l32 -3 7 -165 c3 -91 11 -177 16 -191 14
-35 68 -59 135 -59 63 0 105 24 94 55 -6 15 -15 16 -60 11 -45 -6 -57 -4 -80
14 l-27 21 0 140 c0 78 5 149 10 160 9 15 22 19 64 19 56 0 83 17 72 45 -4 11
-22 15 -74 15 l-69 0 -9 73 c-8 62 -12 72 -30 75 -11 2 -26 -3 -32 -10z"/>
<path d="M10445 1288 c-2 -13 -6 -45 -7 -73 l-3 -50 -40 -5 c-35 -4 -40 -8
-40 -30 0 -20 6 -26 30 -28 52 -6 55 -14 56 -146 1 -231 19 -268 137 -274 55
-3 72 -1 91 15 16 13 22 26 18 37 -6 15 -15 16 -60 11 -48 -6 -57 -4 -83 18
l-29 25 0 154 0 153 73 3 72 3 0 29 0 29 -72 3 -73 3 -3 73 -3 72 -29 0 c-23
0 -31 -5 -35 -22z"/>
<path d="M5633 1158 c-11 -17 -17 -293 -8 -395 6 -79 8 -83 31 -83 17 0 27 8
34 24 10 26 -3 436 -14 455 -9 15 -33 14 -43 -1z"/>
<path d="M6930 1161 c-106 -33 -160 -111 -160 -234 0 -159 95 -257 238 -244
113 10 180 67 203 175 41 193 -109 355 -281 303z m156 -92 c74 -68 73 -218 -3
-291 -29 -28 -40 -32 -87 -32 -102 0 -146 54 -146 179 0 93 20 137 73 161 48
22 131 13 163 -17z"/>
<path d="M7824 1151 c-161 -73 -181 -340 -32 -439 99 -65 339 -11 278 63 -10
12 -18 12 -51 -5 -59 -30 -119 -36 -163 -15 -44 21 -86 78 -86 117 l0 28 134
0 c73 0 148 3 166 6 l32 7 -4 72 c-3 59 -8 78 -30 107 -55 72 -160 97 -244 59z
m152 -66 c31 -20 52 -53 60 -93 l7 -32 -142 0 -142 0 7 23 c18 59 53 100 104
120 23 9 79 0 106 -18z"/>
<path d="M8417 1155 c-22 -7 -49 -23 -61 -34 -29 -27 -32 -27 -45 9 -7 23 -16
30 -35 30 l-26 0 0 -182 c0 -101 3 -207 6 -235 6 -47 9 -53 30 -53 30 0 32 10
37 180 2 76 9 144 15 157 16 28 69 61 118 71 35 7 39 11 42 40 3 28 0 32 -20
32 -13 -1 -40 -7 -61 -15z"/>
<path d="M8699 1157 c-41 -16 -99 -54 -99 -67 0 -4 9 -18 19 -31 l19 -24 24
21 c37 34 63 44 118 44 61 0 99 -30 102 -80 0 -16 1 -36 2 -42 1 -9 -26 -15
-88 -20 -49 -4 -109 -14 -133 -23 -78 -30 -114 -118 -74 -182 29 -46 62 -64
128 -70 50 -4 66 -1 114 24 55 28 56 28 65 8 5 -11 21 -21 37 -23 l27 -3 -1
123 c-1 244 -14 299 -80 333 -40 21 -138 27 -180 12z m191 -298 c0 -54 -40
-93 -111 -108 -89 -19 -146 23 -119 89 16 39 69 59 158 59 l72 1 0 -41z"/>
<path d="M9290 1161 c-14 -5 -40 -16 -59 -25 -32 -17 -33 -17 -48 3 -8 12 -25
21 -39 21 l-24 0 0 -252 c0 -139 3 -290 7 -335 6 -82 6 -83 33 -83 35 0 40 17
40 136 l0 91 58 -20 c181 -61 315 71 287 288 -16 130 -135 212 -255 176z m114
-75 c43 -18 66 -74 66 -164 0 -76 -19 -124 -62 -155 -36 -27 -124 -27 -170 0
l-33 19 -3 131 -3 132 38 25 c43 30 113 35 167 12z"/>
<path d="M10025 1163 c-39 -10 -74 -44 -90 -87 -16 -41 -16 -46 -1 -78 19 -39
58 -64 161 -103 38 -14 77 -33 87 -42 25 -23 22 -60 -7 -88 -31 -32 -82 -33
-167 -4 -54 18 -63 19 -76 5 -36 -36 35 -77 145 -84 111 -7 179 33 197 115 12
55 -16 98 -88 132 -33 16 -80 35 -103 42 -77 22 -104 68 -63 109 25 25 112 27
171 3 41 -16 42 -16 59 8 10 13 16 27 14 31 -3 4 -34 17 -70 28 -63 19 -125
24 -169 13z"/>
<path d="M5840 1135 c0 -33 8 -36 139 -43 l110 -7 -75 -100 c-119 -158 -175
-246 -172 -269 3 -19 11 -22 78 -26 41 -3 121 -3 178 -1 l102 3 0 29 0 29
-129 0 c-72 0 -132 4 -135 8 -3 5 36 62 86 128 114 150 168 232 168 256 0 17
-12 18 -175 18 l-175 0 0 -25z"/>
<path d="M6265 1151 c-3 -6 35 -110 85 -232 l90 -223 -15 -47 c-10 -28 -30
-60 -49 -77 -18 -15 -36 -33 -39 -39 -7 -12 17 -43 33 -43 24 0 86 71 113 129
37 83 194 490 199 516 2 15 -3 21 -23 23 -14 2 -31 -3 -38 -11 -6 -8 -38 -88
-71 -177 -33 -90 -62 -165 -64 -168 -7 -6 -38 60 -96 208 -30 74 -58 138 -64
142 -16 11 -54 10 -61 -1z"/>
<path d="M9700 925 l0 -235 29 0 c38 0 41 16 41 266 l0 204 -35 0 -35 0 0
-235z"/>
</g>
</svg>
